{
  "title": "The Secret Daughter - S01E01 - Flame Trees",
  "uid": 15976744,
  "size": 340443800,
  "categoryP": "video",
  "categoryS": "tv_shows",
  "magnet": "?xt=urn:btih:f3f7474f6fb7adeae1cc5b7fced28b0cd85dc63d&amp;dn=The+Secret+Daughter+-+S01E01+-+Flame+Trees&amp;tr=udp%3A%2F%2Ftracker.leechers-paradise.org%3A6969&amp;tr=udp%3A%2F%2Fzer0day.ch%3A1337&amp;tr=udp%3A%2F%2Fopen.demonii.com%3A1337&amp;tr=udp%3A%2F%2Ftracker.coppersurfer.tk%3A6969&amp;tr=udp%3A%2F%2Fexodus.desync.com%3A6969",
  "seeders": 36,
  "leechers": 10,
  "uploader": "Bullrout",
  "files": 1,
  "time": 1475852814,
  "description": "The Secret Daughter - S01E01 - Flame Trees\r\n\r\nFinding herself in hot water with the local hood, Billie pretends to be the secret daughter of Jack Norton in order to escape town, which suddenly lands her in the middle of a grieving family.\r\n\r\nComplete name                            : The Secret Daughter - S01E01 - Flame Trees.mp4\r\nFormat                                   : MPEG-4\r\nFormat profile                           : Base Media / Version 2\r\nCodec ID                                 : mp42 (mp42/isom/avc1)\r\nFile size                                : 325 MiB\r\nDuration                                 : 41 min 3 s\r\nOverall bit rate mode                    : Variable\r\nOverall bit rate                         : 1 106 kb/s\r\n\r\nVideo\r\nID                                       : 2\r\nFormat                                   : AVC\r\nFormat/Info                              : Advanced Video Codec\r\nFormat profile                           :   \r\nFormat settings, CABAC                   : Yes\r\nFormat settings, ReFrames                : 3 frames\r\nCodec ID                                 : avc1\r\nCodec ID/Info                            : Advanced Video Coding\r\nDuration                                 : 41 min 3 s\r\nBit rate mode                            : Variable\r\nBit rate                                 : 974 kb/s\r\nMaximum bit rate                         : 1 000 kb/s\r\nWidth                                    : 720 pixels\r\nHeight                                   : 404 pixels\r\nDisplay aspect ratio                     : 16:9\r\nOriginal display aspect ratio            : 16:9\r\nFrame rate mode                          : Constant\r\nFrame rate                               : 25.000 FPS\r\nStandard                                 : PAL\r\nColor space                              : YUV\r\nChroma subsampling                       : 4:2:0\r\nBit depth                                : 8 bits\r\nScan type                                : Progressive\r\nBits/(Pixel*Frame)                       : 0.134\r\nStream size                              : 286 MiB (88%)\r\nWriting library                          : x264 core 112\r\nColor range                              : Limited\r\nColor primaries                          : BT.601 PAL\r\nTransfer characteristics                 : BT.470 System B, BT.470 System G\r\nMatrix coefficients                      : BT.601\r\n\r\nAudio\r\nID                                       : 1\r\nFormat                                   : AAC\r\nFormat/Info                              : Advanced Audio Codec\r\nFormat profile                           : LC\r\nCodec ID                                 : 40\r\nDuration                                 : 41 min 3 s\r\nBit rate mode                            : Variable\r\nBit rate                                 : 128 kb/s\r\nMaximum bit rate                         : 576 kb/s\r\nChannel(s)                               : 2 channels\r\nChannel positions                        : Front: L R\r\nSampling rate                            : 48.0 kHz\r\nFrame rate                               : 46.875 FPS (1024 spf)\r\nCompression mode                         : Lossy\r\nStream size                              : 37.6 MiB (12%)",
  "parsed": {
    "xt": "urn:btih:f3f7474f6fb7adeae1cc5b7fced28b0cd85dc63d",
    "dn": "The Secret Daughter - S01E01 - Flame Trees",
    "tr": [
      "udp://exodus.desync.com:6969",
      "udp://open.demonii.com:1337",
      "udp://tracker.coppersurfer.tk:6969",
      "udp://tracker.leechers-paradise.org:6969",
      "udp://zer0day.ch:1337"
    ],
    "infoHash": "f3f7474f6fb7adeae1cc5b7fced28b0cd85dc63d",
    "infoHashBuffer": {
      "type": "Buffer",
      "data": [
        243,
        247,
        71,
        79,
        111,
        183,
        173,
        234,
        225,
        204,
        91,
        127,
        206,
        210,
        139,
        12,
        216,
        93,
        198,
        61
      ]
    },
    "name": "The Secret Daughter - S01E01 - Flame Trees",
    "announce": [
      "udp://exodus.desync.com:6969",
      "udp://open.demonii.com:1337",
      "udp://tracker.coppersurfer.tk:6969",
      "udp://tracker.leechers-paradise.org:6969",
      "udp://zer0day.ch:1337"
    ],
    "urlList": []
  },
  "previous": 46,
  "peers": 49,
  "last_updated": "2016-12-25T18:04:55.347Z"
}